<svg width="16" height="16" viewBox="0 0 16 16" fill="none" xmlns="http://www.w3.org/2000/svg">
<path d="M14.7891 7.89059L8.35317 1.45934C8.30683 1.41291 8.25179 1.37607 8.1912 1.35094C8.1306 1.3258 8.06565 1.31287 8.00005 1.31287C7.93445 1.31287 7.86949 1.3258 7.8089 1.35094C7.74831 1.37607 7.69326 1.41291 7.64692 1.45934L1.21099 7.89059C1.02349 8.07809 0.917236 8.33278 0.917236 8.5984C0.917236 9.14996 1.36567 9.5984 1.91724 9.5984H2.59536V14.1875C2.59536 14.464 2.8188 14.6875 3.09536 14.6875H7.00005V11.1875H8.75005V14.6875H12.9047C13.1813 14.6875 13.4047 14.464 13.4047 14.1875V9.5984H14.0829C14.3485 9.5984 14.6032 9.49371 14.7907 9.30465C15.1797 8.91403 15.1797 8.28121 14.7891 7.89059Z" fill="#808080"/>
</svg>
