<svg width="79" height="80" viewBox="0 0 79 80" fill="none" xmlns="http://www.w3.org/2000/svg">
<g clip-path="url(#clip0_66_3244)">
<path d="M67.438 68.29C82.865 52.6678 82.865 27.3391 67.438 11.7168C52.011 -3.90546 26.9989 -3.90546 11.5719 11.7168C-3.85504 27.3391 -3.85504 52.6678 11.5719 68.29C26.9989 83.9123 52.011 83.9123 67.438 68.29Z" fill="#F2F2F2"/>
<path d="M39.5032 74.6958C58.4239 74.6958 73.7621 59.1634 73.7621 40.0033C73.7621 20.8431 58.4239 5.31079 39.5032 5.31079C20.5826 5.31079 5.24438 20.8431 5.24438 40.0033C5.24438 59.1634 20.5826 74.6958 39.5032 74.6958Z" fill="#AFD5FF"/>
<mask id="mask0_66_3244" style="mask-type:luminance" maskUnits="userSpaceOnUse" x="5" y="5" width="69" height="70">
<path d="M39.5032 74.6958C58.4239 74.6958 73.7621 59.1634 73.7621 40.0033C73.7621 20.8431 58.4239 5.31079 39.5032 5.31079C20.5826 5.31079 5.24438 20.8431 5.24438 40.0033C5.24438 59.1634 20.5826 74.6958 39.5032 74.6958Z" fill="white"/>
</mask>
<g mask="url(#mask0_66_3244)">
<path d="M56.0147 16.6873H9.54717C6.49337 16.6873 4.01501 19.197 4.01501 22.2894V51.0089C4.01501 54.1014 6.49337 56.6111 9.54717 56.6111H15.0663V65.7296L24.0707 56.6111H56.0147C59.0685 56.6111 61.5468 54.1014 61.5468 51.0089V22.2894C61.5468 19.197 59.0685 16.6873 56.0147 16.6873Z" fill="url(#paint0_linear_66_3244)"/>
<path d="M20.1929 34.2485H12.7186V49.8433H20.1929V34.2485Z" fill="white"/>
<path d="M33.3628 24.3752H25.8885V49.8433H33.3628V24.3752Z" fill="white"/>
<path d="M46.5328 39.1819H39.0585V49.8433H46.5328V39.1819Z" fill="white"/>
</g>
<path d="M73.0689 46.7908H37.4761C35.9459 46.7908 34.7035 48.0489 34.7035 49.5985V66.9944C34.7035 68.5439 35.9459 69.8021 37.4761 69.8021H60.3829L69.0146 78.5431V69.8021H73.0689C74.5991 69.8021 75.8416 68.5439 75.8416 66.9944V49.5985C75.8416 48.0489 74.5991 46.7908 73.0689 46.7908Z" fill="url(#paint1_linear_66_3244)"/>
<path d="M47.638 59.0413C47.638 60.3525 46.5917 61.412 45.297 61.412C44.0022 61.412 42.9559 60.3525 42.9559 59.0413C42.9559 57.7302 44.0022 56.6707 45.297 56.6707C46.5917 56.6707 47.638 57.7302 47.638 59.0413Z" fill="white"/>
<path d="M57.6168 59.0413C57.6168 60.3525 56.5705 61.412 55.2757 61.412C53.981 61.412 52.9347 60.3525 52.9347 59.0413C52.9347 57.7302 53.981 56.6707 55.2757 56.6707C56.5705 56.6707 57.6168 57.7302 57.6168 59.0413Z" fill="white"/>
<path d="M67.589 59.0413C67.589 60.3525 66.5428 61.412 65.248 61.412C63.9533 61.412 62.907 60.3525 62.907 59.0413C62.907 57.7302 63.9533 56.6707 65.248 56.6707C66.5428 56.6707 67.589 57.7302 67.589 59.0413Z" fill="white"/>
</g>
<defs>
<linearGradient id="paint0_linear_66_3244" x1="4.01501" y1="41.2018" x2="61.5468" y2="41.2018" gradientUnits="userSpaceOnUse">
<stop stop-color="#B2D5FF"/>
<stop offset="1" stop-color="#467CFF"/>
</linearGradient>
<linearGradient id="paint1_linear_66_3244" x1="34.697" y1="62.6703" x2="75.8481" y2="62.6703" gradientUnits="userSpaceOnUse">
<stop stop-color="#B1E47D"/>
<stop offset="1" stop-color="#78A61D"/>
</linearGradient>
<clipPath id="clip0_66_3244">
<rect width="79" height="80" fill="white"/>
</clipPath>
</defs>
</svg>
