<svg width="20" height="21" viewBox="0 0 20 21" fill="none" xmlns="http://www.w3.org/2000/svg">
<g id="Date range">
<path id="Vector" d="M6.66667 12.1667C6.43056 12.1667 6.2325 12.0867 6.0725 11.9267C5.91306 11.7673 5.83333 11.5695 5.83333 11.3334C5.83333 11.0973 5.91306 10.8992 6.0725 10.7392C6.2325 10.5798 6.43056 10.5001 6.66667 10.5001C6.90278 10.5001 7.10083 10.5798 7.26083 10.7392C7.42028 10.8992 7.5 11.0973 7.5 11.3334C7.5 11.5695 7.42028 11.7673 7.26083 11.9267C7.10083 12.0867 6.90278 12.1667 6.66667 12.1667ZM10 12.1667C9.76389 12.1667 9.56611 12.0867 9.40667 11.9267C9.24667 11.7673 9.16667 11.5695 9.16667 11.3334C9.16667 11.0973 9.24667 10.8992 9.40667 10.7392C9.56611 10.5798 9.76389 10.5001 10 10.5001C10.2361 10.5001 10.4342 10.5798 10.5942 10.7392C10.7536 10.8992 10.8333 11.0973 10.8333 11.3334C10.8333 11.5695 10.7536 11.7673 10.5942 11.9267C10.4342 12.0867 10.2361 12.1667 10 12.1667ZM13.3333 12.1667C13.0972 12.1667 12.8994 12.0867 12.74 11.9267C12.58 11.7673 12.5 11.5695 12.5 11.3334C12.5 11.0973 12.58 10.8992 12.74 10.7392C12.8994 10.5798 13.0972 10.5001 13.3333 10.5001C13.5694 10.5001 13.7672 10.5798 13.9267 10.7392C14.0867 10.8992 14.1667 11.0973 14.1667 11.3334C14.1667 11.5695 14.0867 11.7673 13.9267 11.9267C13.7672 12.0867 13.5694 12.1667 13.3333 12.1667ZM4.16667 18.8334C3.70833 18.8334 3.31583 18.6704 2.98917 18.3442C2.66306 18.0176 2.5 17.6251 2.5 17.1667V5.50008C2.5 5.04175 2.66306 4.64953 2.98917 4.32341C3.31583 3.99675 3.70833 3.83341 4.16667 3.83341H5V2.97925C5 2.74314 5.07972 2.54869 5.23917 2.39591C5.39917 2.24314 5.59722 2.16675 5.83333 2.16675C6.06944 2.16675 6.2675 2.24647 6.4275 2.40591C6.58694 2.56591 6.66667 2.76397 6.66667 3.00008V3.83341H13.3333V2.97925C13.3333 2.74314 13.4133 2.54869 13.5733 2.39591C13.7328 2.24314 13.9306 2.16675 14.1667 2.16675C14.4028 2.16675 14.6006 2.24647 14.76 2.40591C14.92 2.56591 15 2.76397 15 3.00008V3.83341H15.8333C16.2917 3.83341 16.6842 3.99675 17.0108 4.32341C17.3369 4.64953 17.5 5.04175 17.5 5.50008V17.1667C17.5 17.6251 17.3369 18.0176 17.0108 18.3442C16.6842 18.6704 16.2917 18.8334 15.8333 18.8334H4.16667ZM4.16667 17.1667H15.8333V8.83341H4.16667V17.1667ZM4.16667 7.16675H15.8333V5.50008H4.16667V7.16675Z" fill="white"/>
</g>
</svg>
