<svg width="85" height="80" viewBox="0 0 85 80" fill="none" xmlns="http://www.w3.org/2000/svg">
<g clip-path="url(#clip0_66_3222)">
<path d="M77.8133 49.4301C82.9529 27.96 69.9497 6.33147 48.7699 1.12143C27.5901 -4.08861 6.25399 9.09279 1.1144 30.5629C-4.02519 52.033 8.97798 73.6616 30.1578 78.8716C51.3376 84.0816 72.6737 70.9002 77.8133 49.4301Z" fill="#F2F2F2"/>
<path d="M39.4624 74.6958C58.3635 74.6958 73.6858 59.1634 73.6858 40.0033C73.6858 20.8431 58.3635 5.31079 39.4624 5.31079C20.5614 5.31079 5.23901 20.8431 5.23901 40.0033C5.23901 59.1634 20.5614 74.6958 39.4624 74.6958Z" fill="#BDAFFF"/>
<path d="M60.2486 22.9453C60.2486 20.9388 58.6416 19.3098 56.6623 19.3098H22.2625C20.2832 19.3098 18.6762 20.9388 18.6762 22.9453V61.7633C18.6762 63.7697 20.2832 65.3987 22.2625 65.3987H52.1223L60.2486 57.161V22.9453Z" fill="white"/>
<path d="M60.2486 57.1609H55.7086C53.7292 57.1609 52.1223 58.7899 52.1223 60.7963V65.3986L60.2486 57.1609Z" fill="url(#paint0_linear_66_3222)"/>
<path d="M28.1809 24.018C26.5412 24.018 25.2021 22.6671 25.2021 20.9984V17.6212C25.2021 15.9591 26.5347 14.6016 28.1809 14.6016C29.827 14.6016 31.1597 15.9524 31.1597 17.6212V19.3098H29.6964V17.6212C29.6964 16.7736 29.017 16.0915 28.1874 16.0915C27.3578 16.0915 26.6784 16.7802 26.6784 17.6212V20.9984C26.6784 21.846 27.3578 22.5281 28.1874 22.5281V24.0114L28.1809 24.018Z" fill="url(#paint1_linear_66_3222)"/>
<path d="M35.6997 24.018C34.06 24.018 32.7209 22.6671 32.7209 20.9984V17.6212C32.7209 15.9591 34.0535 14.6016 35.6997 14.6016C37.3458 14.6016 38.6785 15.9524 38.6785 17.6212V19.3098H37.2152V17.6212C37.2152 16.7736 36.5358 16.0915 35.7062 16.0915C34.8766 16.0915 34.1972 16.7802 34.1972 17.6212V20.9984C34.1972 21.846 34.8766 22.5281 35.7062 22.5281V24.0114L35.6997 24.018Z" fill="url(#paint2_linear_66_3222)"/>
<path d="M43.2185 24.018C41.5789 24.018 40.2397 22.6671 40.2397 20.9984V17.6212C40.2397 15.9591 41.5724 14.6016 43.2185 14.6016C44.8647 14.6016 46.1973 15.9524 46.1973 17.6212V19.3098H44.7341V17.6212C44.7341 16.7736 44.0547 16.0915 43.2251 16.0915C42.3954 16.0915 41.7161 16.7802 41.7161 17.6212V20.9984C41.7161 21.846 42.3954 22.5281 43.2251 22.5281V24.0114L43.2185 24.018Z" fill="url(#paint3_linear_66_3222)"/>
<path d="M50.7373 24.018C49.0977 24.018 47.7585 22.6671 47.7585 20.9984V17.6212C47.7585 15.9591 49.0912 14.6016 50.7373 14.6016C52.3835 14.6016 53.7161 15.9524 53.7161 17.6212V19.3098H52.2529V17.6212C52.2529 16.7736 51.5735 16.0915 50.7439 16.0915C49.9142 16.0915 49.2349 16.7802 49.2349 17.6212V20.9984C49.2349 21.846 49.9142 22.5281 50.7439 22.5281V24.0114L50.7373 24.018Z" fill="url(#paint4_linear_66_3222)"/>
<path d="M53.7162 30.7593H25.2021V34.004H53.7162V30.7593Z" fill="url(#paint5_linear_66_3222)"/>
<path d="M53.7162 37.6328H25.2021V40.8776H53.7162V37.6328Z" fill="url(#paint6_linear_66_3222)"/>
<path d="M53.7162 44.5063H25.2021V47.7511H53.7162V44.5063Z" fill="url(#paint7_linear_66_3222)"/>
<path d="M53.7162 51.3799H25.2021V54.6246H53.7162V51.3799Z" fill="url(#paint8_linear_66_3222)"/>
<path d="M80.7605 59.7237L74.7702 65.796L53.6901 44.4269C51.3188 42.0231 49.4048 39.2022 48.033 36.1031L46.2823 32.1432C45.9165 31.322 46.7526 30.4744 47.5626 30.8453L51.469 32.6199C54.5262 34.0106 57.309 35.9508 59.6803 38.3546L80.7605 59.7237Z" fill="url(#paint9_linear_66_3222)"/>
<path d="M83.7588 68.8355C82.1061 70.5108 79.4213 70.5108 77.7686 68.8355L74.7702 65.796L80.7604 59.7236L83.7588 62.7631C85.4115 64.4385 85.4115 67.1601 83.7588 68.8355Z" fill="url(#paint10_linear_66_3222)"/>
</g>
<defs>
<linearGradient id="paint0_linear_66_3222" x1="52.1223" y1="61.2798" x2="60.2486" y2="61.2798" gradientUnits="userSpaceOnUse">
<stop stop-color="#FCDE00"/>
<stop offset="1" stop-color="#FC6100"/>
</linearGradient>
<linearGradient id="paint1_linear_66_3222" x1="25.2021" y1="19.3098" x2="31.1531" y2="19.3098" gradientUnits="userSpaceOnUse">
<stop stop-color="#A396FF"/>
<stop offset="1" stop-color="#5E47FF"/>
</linearGradient>
<linearGradient id="paint2_linear_66_3222" x1="32.7209" y1="0.000120375" x2="38.6785" y2="0.000120375" gradientUnits="userSpaceOnUse">
<stop stop-color="#A396FF"/>
<stop offset="1" stop-color="#5E47FF"/>
</linearGradient>
<linearGradient id="paint3_linear_66_3222" x1="40.2397" y1="0.000120375" x2="46.1973" y2="0.000120375" gradientUnits="userSpaceOnUse">
<stop stop-color="#A396FF"/>
<stop offset="1" stop-color="#5E47FF"/>
</linearGradient>
<linearGradient id="paint4_linear_66_3222" x1="47.7651" y1="0.000120689" x2="53.7161" y2="0.000120689" gradientUnits="userSpaceOnUse">
<stop stop-color="#A396FF"/>
<stop offset="1" stop-color="#5E47FF"/>
</linearGradient>
<linearGradient id="paint5_linear_66_3222" x1="-3.48337e-05" y1="32.3817" x2="53.7162" y2="32.3817" gradientUnits="userSpaceOnUse">
<stop stop-color="#A396FF"/>
<stop offset="1" stop-color="#5E47FF"/>
</linearGradient>
<linearGradient id="paint6_linear_66_3222" x1="-3.48337e-05" y1="39.2552" x2="53.7162" y2="39.2552" gradientUnits="userSpaceOnUse">
<stop stop-color="#A396FF"/>
<stop offset="1" stop-color="#5E47FF"/>
</linearGradient>
<linearGradient id="paint7_linear_66_3222" x1="-3.48337e-05" y1="46.1287" x2="53.7162" y2="46.1287" gradientUnits="userSpaceOnUse">
<stop stop-color="#A396FF"/>
<stop offset="1" stop-color="#5E47FF"/>
</linearGradient>
<linearGradient id="paint8_linear_66_3222" x1="-3.48337e-05" y1="53.0023" x2="53.7162" y2="53.0023" gradientUnits="userSpaceOnUse">
<stop stop-color="#A396FF"/>
<stop offset="1" stop-color="#5E47FF"/>
</linearGradient>
<linearGradient id="paint9_linear_66_3222" x1="46.1974" y1="48.2743" x2="80.7605" y2="48.2743" gradientUnits="userSpaceOnUse">
<stop stop-color="#FCDE00"/>
<stop offset="1" stop-color="#FC6100"/>
</linearGradient>
<linearGradient id="paint10_linear_66_3222" x1="74.7702" y1="64.9086" x2="85" y2="64.9086" gradientUnits="userSpaceOnUse">
<stop stop-color="#A396FF"/>
<stop offset="1" stop-color="#5E47FF"/>
</linearGradient>
<clipPath id="clip0_66_3222">
<rect width="85" height="80" fill="white"/>
</clipPath>
</defs>
</svg>
