<svg width="91" height="80" viewBox="0 0 91 80" fill="none" xmlns="http://www.w3.org/2000/svg">
<g clip-path="url(#clip0_66_603)">
<path d="M75.9516 68.2937C91.7674 52.6714 91.7674 27.3427 75.9516 11.7205C60.1358 -3.90179 34.4934 -3.90179 18.6776 11.7205C2.86187 27.3427 2.86187 52.6714 18.6776 68.2937C34.4934 83.916 60.1358 83.916 75.9516 68.2937Z" fill="#F2F2F2"/>
<path d="M47.31 74.6958C66.7075 74.6958 82.4322 59.1634 82.4322 40.0033C82.4322 20.8431 66.7075 5.31079 47.31 5.31079C27.9126 5.31079 12.1878 20.8431 12.1878 40.0033C12.1878 59.1634 27.9126 74.6958 47.31 74.6958Z" fill="#6D718D"/>
<mask id="mask0_66_603" style="mask-type:luminance" maskUnits="userSpaceOnUse" x="12" y="5" width="71" height="70">
<path d="M47.31 74.6958C66.7075 74.6958 82.4322 59.1634 82.4322 40.0033C82.4322 20.8431 66.7075 5.31079 47.31 5.31079C27.9126 5.31079 12.1878 20.8431 12.1878 40.0033C12.1878 59.1634 27.9126 74.6958 47.31 74.6958Z" fill="white"/>
</mask>
<g mask="url(#mask0_66_603)">
<path d="M6.3219 24.6733H70.5394C71.954 24.6733 73.1071 25.8123 73.1071 27.2096V70.0603H3.75427V27.2096C3.75427 25.8123 4.90736 24.6733 6.3219 24.6733Z" fill="white"/>
<path d="M69.3059 70.0603V28.428L7.55543 28.428V70.0603H69.3059Z" fill="url(#paint0_linear_66_603)"/>
<path d="M71.7998 75.0599H5.06151C2.26595 75.0599 0 72.8217 0 70.0603H76.8613C76.8613 72.8217 74.5953 75.0599 71.7998 75.0599Z" fill="url(#paint1_linear_66_603)"/>
<path d="M42.1011 72.1794H34.7535C33.5669 72.1794 32.6015 71.2258 32.6015 70.0537H44.2463C44.2463 71.2258 43.281 72.1794 42.0944 72.1794H42.1011Z" fill="white"/>
</g>
<path d="M52.9615 13.2969H88.2714C89.7731 13.2969 90.9932 14.5021 90.9932 15.9854V20.2566H50.233V15.9854C50.233 14.5021 51.4531 13.2969 52.9548 13.2969H52.9615Z" fill="url(#paint2_linear_66_603)"/>
<path d="M50.2397 20.2566H91V52.7705C91 54.2538 89.7798 55.459 88.2781 55.459H52.9682C51.4665 55.459 50.2464 54.2538 50.2464 52.7705V20.2566H50.2397Z" fill="url(#paint3_linear_66_603)"/>
<path d="M83.5451 37.0631C83.5451 30.0107 77.7596 24.2959 70.6198 24.2959V37.0631H83.5451Z" fill="url(#paint4_linear_66_603)"/>
<path d="M70.6198 24.2959C63.4801 24.2959 57.6945 30.0107 57.6945 37.0631C57.6945 44.1155 63.4801 49.8302 70.6198 49.8302C74.1863 49.8302 77.4177 48.3999 79.7574 46.0888L70.6198 37.0631V24.2959Z" fill="url(#paint5_linear_66_603)"/>
<path d="M70.6198 37.063L79.7574 46.0887C82.0971 43.7777 83.5451 40.5859 83.5451 37.063H70.6198Z" fill="white"/>
<path d="M66.4499 39.5464H55.1604V40.9966H66.4499V39.5464Z" fill="white"/>
<path d="M66.4499 42.5991H55.1604V44.0493H66.4499V42.5991Z" fill="white"/>
<path d="M66.4499 45.6584H55.1604V47.1087H66.4499V45.6584Z" fill="white"/>
<path d="M54.5436 17.8065C55.1212 17.8065 55.5894 17.344 55.5894 16.7735C55.5894 16.203 55.1212 15.7405 54.5436 15.7405C53.966 15.7405 53.4978 16.203 53.4978 16.7735C53.4978 17.344 53.966 17.8065 54.5436 17.8065Z" fill="white"/>
<path d="M58.5928 17.8065C59.1704 17.8065 59.6386 17.344 59.6386 16.7735C59.6386 16.203 59.1704 15.7405 58.5928 15.7405C58.0152 15.7405 57.547 16.203 57.547 16.7735C57.547 17.344 58.0152 17.8065 58.5928 17.8065Z" fill="white"/>
<path d="M63.6878 16.7735C63.6878 17.343 63.2186 17.8065 62.642 17.8065C62.0655 17.8065 61.5962 17.343 61.5962 16.7735C61.5962 16.204 62.0655 15.7405 62.642 15.7405C63.2186 15.7405 63.6878 16.204 63.6878 16.7735Z" fill="white"/>
<path d="M42.4095 41.5793H24.6707V44.2149H42.4095V41.5793Z" fill="url(#paint6_linear_66_603)"/>
<path d="M42.4095 46.9763H24.6707V49.6119H42.4095V46.9763Z" fill="url(#paint7_linear_66_603)"/>
<path d="M42.4095 52.373H24.6707V55.0086H42.4095V52.373Z" fill="url(#paint8_linear_66_603)"/>
</g>
<defs>
<linearGradient id="paint0_linear_66_603" x1="7.55544" y1="49.2408" x2="69.3059" y2="49.2408" gradientUnits="userSpaceOnUse">
<stop stop-color="#B2D5FF"/>
<stop offset="1" stop-color="#467CFF"/>
</linearGradient>
<linearGradient id="paint1_linear_66_603" x1="0" y1="72.5568" x2="76.8613" y2="72.5568" gradientUnits="userSpaceOnUse">
<stop stop-color="#D9DADE"/>
<stop offset="1" stop-color="#8689A1"/>
</linearGradient>
<linearGradient id="paint2_linear_66_603" x1="50.2397" y1="16.7734" x2="90.9999" y2="16.7734" gradientUnits="userSpaceOnUse">
<stop stop-color="#B2D5FF"/>
<stop offset="1" stop-color="#467CFF"/>
</linearGradient>
<linearGradient id="paint3_linear_66_603" x1="50.2397" y1="37.8578" x2="91" y2="37.8578" gradientUnits="userSpaceOnUse">
<stop stop-color="#D9DADE"/>
<stop offset="1" stop-color="#8689A1"/>
</linearGradient>
<linearGradient id="paint4_linear_66_603" x1="70.6198" y1="30.6795" x2="83.5451" y2="30.6795" gradientUnits="userSpaceOnUse">
<stop stop-color="#D9DADE"/>
<stop offset="1" stop-color="#8689A1"/>
</linearGradient>
<linearGradient id="paint5_linear_66_603" x1="57.6945" y1="37.0631" x2="79.7574" y2="37.0631" gradientUnits="userSpaceOnUse">
<stop stop-color="#B2D5FF"/>
<stop offset="1" stop-color="#467CFF"/>
</linearGradient>
<linearGradient id="paint6_linear_66_603" x1="24.6707" y1="42.8971" x2="42.4095" y2="42.8971" gradientUnits="userSpaceOnUse">
<stop stop-color="#D9DADE"/>
<stop offset="1" stop-color="#8689A1"/>
</linearGradient>
<linearGradient id="paint7_linear_66_603" x1="24.6707" y1="48.2941" x2="42.4095" y2="48.2941" gradientUnits="userSpaceOnUse">
<stop stop-color="#D9DADE"/>
<stop offset="1" stop-color="#8689A1"/>
</linearGradient>
<linearGradient id="paint8_linear_66_603" x1="24.6707" y1="53.6908" x2="42.4095" y2="53.6908" gradientUnits="userSpaceOnUse">
<stop stop-color="#D9DADE"/>
<stop offset="1" stop-color="#8689A1"/>
</linearGradient>
<clipPath id="clip0_66_603">
<rect width="91" height="80" fill="white"/>
</clipPath>
</defs>
</svg>
