<svg width="103" height="100" viewBox="0 0 103 100" fill="none" xmlns="http://www.w3.org/2000/svg">
<g clip-path="url(#clip0_66_439)">
<path d="M18.2498 56.4658L8.1769 66.5387C5.57713 69.1385 4.11896 72.6592 4.11896 76.3238C4.11896 83.9697 10.3162 90.1669 17.962 90.1669" stroke="#003E92" stroke-width="2.5" stroke-linecap="round" stroke-linejoin="round"/>
<path d="M17.9716 90.167H50.4447" stroke="#003E92" stroke-width="2.5" stroke-linecap="round" stroke-linejoin="round"/>
<path d="M50.838 16.4811L17.703 5.8997C13.7026 4.6238 9.33766 5.3337 5.94165 7.80876L1.19299 11.2719L39.8634 31.8398" fill="#A5CEFF"/>
<path d="M50.838 16.4811L17.703 5.8997C13.7026 4.6238 9.33766 5.3337 5.94165 7.80876L1.19299 11.2719L39.8634 31.8398" stroke="black" stroke-width="2.5" stroke-linecap="round" stroke-linejoin="round"/>
<path d="M58.2345 23.887L68.8158 57.022C70.0917 61.0224 69.3818 65.3873 66.9068 68.7834L63.4436 73.532L42.8757 34.8616" fill="#A5CEFF"/>
<path d="M58.2345 23.887L68.8158 57.022C70.0917 61.0224 69.3818 65.3873 66.9068 68.7834L63.4436 73.532L42.8757 34.8616" stroke="black" stroke-width="2.5" stroke-linecap="round" stroke-linejoin="round"/>
<path d="M27.8526 55.0844L71.8185 11.1281C74.0921 8.8545 74.0921 5.17069 71.8185 2.89709C69.5449 0.623495 65.8611 0.623495 63.5875 2.89709L19.6312 46.8629L12.2061 42.7666L6.95856 48.0141L18.2594 56.4658L26.7111 67.7666L31.9586 62.5191L27.8622 55.094L27.8526 55.0844Z" fill="white" stroke="black" stroke-width="2.5" stroke-linecap="round" stroke-linejoin="round"/>
<path d="M101.807 57.8184H47.49V98.8007H101.807V57.8184Z" fill="#F59752" stroke="black" stroke-width="2.5" stroke-linecap="round" stroke-linejoin="round"/>
<path d="M68.6335 76.084H80.6634V57.828H68.6335V76.084Z" fill="white" stroke="black" stroke-width="2.5" stroke-linecap="round" stroke-linejoin="round"/>
<path d="M90.7076 28.6549C86.6209 24.5682 79.9919 24.5682 75.8956 28.6549C71.8089 32.7416 71.8089 39.3705 75.8956 43.4669C79.9823 47.5632 86.6113 47.5536 90.7076 43.4669C94.8039 39.3801 94.7943 32.7416 90.7076 28.6549Z" stroke="#003E92" stroke-width="2.5" stroke-linecap="round" stroke-linejoin="round"/>
<path d="M78.9846 35.418L83.9156 40.3586L96.1757 28.0984" stroke="#003E92" stroke-width="2.5" stroke-linecap="round" stroke-linejoin="round"/>
</g>
<defs>
<clipPath id="clip0_66_439">
<rect width="103.012" height="100" fill="white" transform="translate(-0.00616455)"/>
</clipPath>
</defs>
</svg>
