<svg width="83" height="80" viewBox="0 0 83 80" fill="none" xmlns="http://www.w3.org/2000/svg">
<g clip-path="url(#clip0_66_557)">
<path d="M40.9113 80.0066C63.2299 80.0066 81.3226 62.0965 81.3226 40.0033C81.3226 17.9101 63.2299 0 40.9113 0C18.5928 0 0.5 17.9101 0.5 40.0033C0.5 62.0965 18.5928 80.0066 40.9113 80.0066Z" fill="#F2F2F2"/>
<path d="M40.9113 74.6958C60.2669 74.6958 75.9577 59.1634 75.9577 40.0033C75.9577 20.8431 60.2669 5.31079 40.9113 5.31079C21.5558 5.31079 5.86499 20.8431 5.86499 40.0033C5.86499 59.1634 21.5558 74.6958 40.9113 74.6958Z" fill="#B9CAD7"/>
<mask id="mask0_66_557" style="mask-type:luminance" maskUnits="userSpaceOnUse" x="5" y="5" width="71" height="70">
<path d="M40.9113 74.6958C60.2669 74.6958 75.9577 59.1634 75.9577 40.0033C75.9577 20.8431 60.2669 5.31079 40.9113 5.31079C21.5558 5.31079 5.86499 20.8431 5.86499 40.0033C5.86499 59.1634 21.5558 74.6958 40.9113 74.6958Z" fill="white"/>
</mask>
<g mask="url(#mask0_66_557)">
<path d="M13.2837 16.9722H67.3015C69.1545 16.9722 70.6596 18.4621 70.6596 20.2964V27.6269H9.92554V20.2964C9.92554 18.4621 11.4307 16.9722 13.2837 16.9722Z" fill="url(#paint0_linear_66_557)"/>
<path d="M9.92554 27.627H70.6596V64.0279C70.6596 65.8622 69.1545 67.3521 67.3015 67.3521H13.2837C11.4307 67.3521 9.92554 65.8622 9.92554 64.0279V27.627Z" fill="white"/>
<path d="M15.9194 24.0445C16.8947 24.0445 17.6854 23.2618 17.6854 22.2963C17.6854 21.3308 16.8947 20.5481 15.9194 20.5481C14.944 20.5481 14.1533 21.3308 14.1533 22.2963C14.1533 23.2618 14.944 24.0445 15.9194 24.0445Z" fill="white"/>
<path d="M23.6992 22.2963C23.6992 23.2631 22.9099 24.0445 21.9332 24.0445C20.9565 24.0445 20.1672 23.2631 20.1672 22.2963C20.1672 21.3295 20.9565 20.5481 21.9332 20.5481C22.9099 20.5481 23.6992 21.3295 23.6992 22.2963Z" fill="white"/>
<path d="M29.6997 22.2963C29.6997 23.2631 28.9104 24.0445 27.9337 24.0445C26.957 24.0445 26.1677 23.2631 26.1677 22.2963C26.1677 21.3295 26.957 20.5481 27.9337 20.5481C28.9104 20.5481 29.6997 21.3295 29.6997 22.2963Z" fill="white"/>
<path d="M24.6291 47.7578H17.1502V62.048H24.6291V47.7578Z" fill="url(#paint1_linear_66_557)"/>
<path d="M34.8908 34.9509H27.4119V62.0414H34.8908V34.9509Z" fill="url(#paint2_linear_66_557)"/>
<path d="M45.1525 54.9028H37.6736V62.0479H45.1525V54.9028Z" fill="url(#paint3_linear_66_557)"/>
<path d="M55.4142 43.9834H47.9353V62.0481H55.4142V43.9834Z" fill="url(#paint4_linear_66_557)"/>
</g>
<path d="M80.0382 34.4277H55.8155C54.4509 34.4277 53.3471 35.5204 53.3471 36.8712V49.8768C53.3471 51.2277 54.4509 52.3203 55.8155 52.3203H59.4212V56.4789L63.6222 52.3203H80.0382C81.4029 52.3203 82.5067 51.2277 82.5067 49.8768V36.8712C82.5067 35.5204 81.4029 34.4277 80.0382 34.4277Z" fill="url(#paint5_linear_66_557)"/>
<path d="M63.2877 43.8044C63.2877 44.7116 62.5452 45.4466 61.6287 45.4466C60.7123 45.4466 59.9697 44.7116 59.9697 43.8044C59.9697 42.8972 60.7123 42.1621 61.6287 42.1621C62.5452 42.1621 63.2877 42.8972 63.2877 43.8044Z" fill="white"/>
<path d="M70.111 43.8044C70.111 44.7116 69.3685 45.4466 68.452 45.4466C67.5356 45.4466 66.793 44.7116 66.793 43.8044C66.793 42.8972 67.5356 42.1621 68.452 42.1621C69.3685 42.1621 70.111 42.8972 70.111 43.8044Z" fill="white"/>
<path d="M76.9276 43.8044C76.9276 44.7116 76.1851 45.4466 75.2686 45.4466C74.3522 45.4466 73.6096 44.7116 73.6096 43.8044C73.6096 42.8972 74.3522 42.1621 75.2686 42.1621C76.1851 42.1621 76.9276 42.8972 76.9276 43.8044Z" fill="white"/>
</g>
<defs>
<linearGradient id="paint0_linear_66_557" x1="9.92554" y1="22.2962" x2="70.6596" y2="22.2962" gradientUnits="userSpaceOnUse">
<stop stop-color="#B1E47D"/>
<stop offset="1" stop-color="#78A61D"/>
</linearGradient>
<linearGradient id="paint1_linear_66_557" x1="17.1502" y1="54.9029" x2="24.6358" y2="54.9029" gradientUnits="userSpaceOnUse">
<stop stop-color="#879FCE"/>
<stop offset="1" stop-color="#54658F"/>
</linearGradient>
<linearGradient id="paint2_linear_66_557" x1="27.4119" y1="48.4995" x2="34.8975" y2="48.4995" gradientUnits="userSpaceOnUse">
<stop stop-color="#879FCE"/>
<stop offset="1" stop-color="#54658F"/>
</linearGradient>
<linearGradient id="paint3_linear_66_557" x1="37.6736" y1="58.4721" x2="45.1525" y2="58.4721" gradientUnits="userSpaceOnUse">
<stop stop-color="#879FCE"/>
<stop offset="1" stop-color="#54658F"/>
</linearGradient>
<linearGradient id="paint4_linear_66_557" x1="47.9353" y1="53.0158" x2="55.4142" y2="53.0158" gradientUnits="userSpaceOnUse">
<stop stop-color="#879FCE"/>
<stop offset="1" stop-color="#54658F"/>
</linearGradient>
<linearGradient id="paint5_linear_66_557" x1="53.3538" y1="45.4533" x2="82.5" y2="45.4533" gradientUnits="userSpaceOnUse">
<stop stop-color="#B1E47D"/>
<stop offset="1" stop-color="#78A61D"/>
</linearGradient>
<clipPath id="clip0_66_557">
<rect width="82" height="80" fill="white" transform="translate(0.5)"/>
</clipPath>
</defs>
</svg>
