<svg width="102" height="100" viewBox="0 0 102 100" fill="none" xmlns="http://www.w3.org/2000/svg">
<g clip-path="url(#clip0_66_403)">
<path d="M6.51404 59.6089V17.3468C6.51404 12.2603 10.6385 8.13281 15.7213 8.13281H81.4684C86.5512 8.13281 90.6757 12.2603 90.6757 17.3468V23.1008" stroke="#003E92" stroke-width="2.5" stroke-linecap="round" stroke-linejoin="round"/>
<path d="M88.8248 27.7361H24.2051V70.1768H88.8248V27.7361Z" fill="#A5CEFF" stroke="#1B1B1B" stroke-width="2.5" stroke-linecap="round" stroke-linejoin="round"/>
<path d="M29.4194 31.4028H22.016V70.1392H29.4194V31.4028Z" fill="white" stroke="#1B1B1B" stroke-width="2.5" stroke-linecap="round" stroke-linejoin="round"/>
<path d="M49.9477 31.4028H42.5443V70.1392H49.9477V31.4028Z" fill="white" stroke="#1B1B1B" stroke-width="2.5" stroke-linecap="round" stroke-linejoin="round"/>
<path d="M70.4761 31.4028H63.0728V70.1392H70.4761V31.4028Z" fill="white" stroke="#1B1B1B" stroke-width="2.5" stroke-linecap="round" stroke-linejoin="round"/>
<path d="M91.0138 31.4028H83.6105V70.1392H91.0138V31.4028Z" fill="white" stroke="#1B1B1B" stroke-width="2.5" stroke-linecap="round" stroke-linejoin="round"/>
<path d="M96.5664 24.3231L56.515 1.17529L16.4541 24.3231V34.4209H96.5664V24.3231Z" fill="white" stroke="#1B1B1B" stroke-width="2.5" stroke-linecap="round" stroke-linejoin="round"/>
<path d="M16.4541 28.1404V34.4209H96.5664V28.1404" fill="#EDF4FF"/>
<path d="M16.4541 28.1404V34.4209H96.5664V28.1404" stroke="#1B1B1B" stroke-width="2.5" stroke-linecap="round" stroke-linejoin="round"/>
<path d="M56.5149 23.994C59.2702 23.994 61.5038 21.7588 61.5038 19.0015C61.5038 16.2442 59.2702 14.009 56.5149 14.009C53.7597 14.009 51.5261 16.2442 51.5261 19.0015C51.5261 21.7588 53.7597 23.994 56.5149 23.994Z" fill="#F59752" stroke="#1B1B1B" stroke-width="2.5" stroke-linecap="round" stroke-linejoin="round"/>
<path d="M96.4443 67.7605H16.5951V77.8771H96.4443V67.7605Z" fill="#EDF4FF" stroke="#1B1B1B" stroke-width="2.5" stroke-linecap="round" stroke-linejoin="round"/>
<path d="M100.268 75.8462H12.7524V85.9628H100.268V75.8462Z" fill="white" stroke="#1B1B1B" stroke-width="2.5" stroke-linecap="round" stroke-linejoin="round"/>
<path d="M20.0243 98.8154C30.1268 98.8154 38.3166 90.6196 38.3166 80.5096C38.3166 70.3996 30.1268 62.2039 20.0243 62.2039C9.92169 62.2039 1.73193 70.3996 1.73193 80.5096C1.73193 90.6196 9.92169 98.8154 20.0243 98.8154Z" fill="#EDF4FF" stroke="#1B1B1B" stroke-width="2.5" stroke-linecap="round" stroke-linejoin="round"/>
<path d="M22.9205 92.7354C29.6651 91.1324 33.8342 84.3613 32.2324 77.6118C30.6306 70.8622 23.8644 66.6901 17.1198 68.2931C10.3752 69.8961 6.20612 76.6672 7.80794 83.4167C9.40976 90.1663 16.1759 94.3384 22.9205 92.7354Z" fill="#A5CEFF"/>
<path d="M11.8223 74.8401L16.191 89.0842L20.0242 76.6171L23.8574 89.0842L28.2356 74.8401" stroke="#1B1B1B" stroke-width="2.5" stroke-linecap="round" stroke-linejoin="round"/>
<path d="M13.2409 81.1865H10.77" stroke="#1B1B1B" stroke-width="2.5" stroke-linecap="round" stroke-linejoin="round"/>
<path d="M29.2878 81.1865H26.8169" stroke="#1B1B1B" stroke-width="2.5" stroke-linecap="round" stroke-linejoin="round"/>
</g>
<defs>
<clipPath id="clip0_66_403">
<rect width="100.885" height="100" fill="white" transform="translate(0.557495)"/>
</clipPath>
</defs>
</svg>
