<svg width="310" height="61" viewBox="0 0 310 61" fill="none" xmlns="http://www.w3.org/2000/svg">
<path fill-rule="evenodd" clip-rule="evenodd" d="M35.3476 3.08183C35.3476 3.08183 19.5614 -1.89557 15.6719 0.800766C15.6719 0.800766 15.3736 3.04674 15.3736 3.94162C15.3736 3.94162 14.777 12.3231 14.777 14.417C14.777 14.417 13.578 20.8508 13.578 21.4532C13.578 21.4532 13.1277 29.2381 13.1277 30.285C13.1277 30.285 13.0926 32.8293 13.1277 35.2215C13.1628 37.6137 13.2797 39.8597 13.426 40.1579C13.426 40.1579 23.0064 41.6553 27.1942 40.6083C27.1942 40.6083 27.3405 33.5721 25.9952 30.7295C25.9952 30.7295 24.7962 26.0914 24.7962 24.7461C24.7962 24.7461 25.2466 11.4282 25.3928 10.9778C25.3928 10.9778 27.3405 10.0771 29.7327 11.5744C29.7327 11.5744 30.6743 12.0716 31.7505 12.6214C33.2595 13.3934 35.2657 14.2532 37.3655 13.8204C37.3655 13.8204 41.407 14.417 41.6293 10.3812C41.6293 10.3812 42.1908 4.76631 38.5996 4.09369C38.5996 4.09369 37.2894 3.68427 35.3417 3.08183H35.3476Z" fill="#009A53"/>
<path fill-rule="evenodd" clip-rule="evenodd" d="M25.5859 46.2935C24.4805 46.2818 23.4335 46.4807 21.9947 46.4046C18.304 46.2058 14.2508 45.6209 13.35 46.7439C13.35 46.7439 13.1278 49.2121 13.4612 50.6743C13.4612 50.6743 13.9115 52.4699 14.3619 52.8092C14.3619 52.8092 18.6257 52.4699 20.1991 52.8092C20.1991 52.8092 25.4748 53.5929 27.1593 53.0314C27.1593 53.0314 28.6156 52.5811 29.066 51.9084C29.066 51.9084 28.1653 47.5335 28.2823 46.5216C28.2823 46.5216 26.9955 46.3111 25.5859 46.2994V46.2935Z" fill="#009A53"/>
<path fill-rule="evenodd" clip-rule="evenodd" d="M41.5242 26.542C41.5242 29.3319 39.2607 31.5954 36.4708 31.5954C33.6809 31.5954 31.4174 29.3319 31.4174 26.542C31.4174 23.752 33.6809 21.4885 36.4708 21.4885C39.2607 21.4885 41.5242 23.752 41.5242 26.542Z" fill="#E8380D"/>
<path fill-rule="evenodd" clip-rule="evenodd" d="M6.50683 42.5911C6.50683 42.5911 9.14468 42.8251 12.6774 42.9303C17.4793 43.0707 23.6675 43.0941 24.574 43.1526C24.574 43.1526 27.3815 43.8252 28.1653 41.6904C28.1653 41.6904 29.066 40.0059 29.3994 39.4444C29.3994 39.4444 30.6335 37.6488 31.8676 39.4444C31.8676 39.4444 32.9906 41.1289 32.9906 41.5793C32.9906 41.5793 34.0025 40.1229 34.5639 39.4444C34.5639 39.4444 35.7981 37.3096 36.3596 36.6369C36.3596 36.6369 37.9329 34.7302 38.7167 37.0873C38.7167 37.0873 39.6174 41.4623 39.5004 42.4741C39.5004 42.4741 42.419 37.6488 44.7761 40.7897C44.7761 40.7897 45.8991 42.9186 46.1213 43.5971C46.1213 43.5971 47.9754 44.0065 50.6133 44.0475C54.2338 44.1001 59.0357 43.7726 59.8136 43.7083C59.8136 43.7083 63.8552 43.486 65.0893 43.486L66.4345 43.3749C66.4345 43.3749 69.5754 43.486 67.6687 45.1705C67.6687 45.1705 66.5457 45.732 65.3116 45.732C65.3116 45.732 52.0404 45.2582 42.0798 45.0593C37.0439 44.9599 32.6572 44.7961 31.5284 44.8371C31.5284 44.8371 22.9305 44.7727 14.9175 44.726C8.09772 44.685 1.72828 44.6675 1.11415 44.6148C1.11415 44.6148 -1.46521 42.4858 1.22528 41.6962C1.22528 41.6962 2.6875 41.5851 3.47125 42.1466C3.47125 42.1466 5.15573 42.7081 6.50098 42.597L6.50683 42.5911Z" fill="#009A53"/>
<path fill-rule="evenodd" clip-rule="evenodd" d="M43.3197 21.9386C43.3197 21.9386 46.1271 24.1846 46.4605 27.8869C46.4605 27.8869 47.3612 35.742 46.9109 38.6606C46.9109 38.6606 46.1271 42.0237 49.9406 42.2518C49.9406 42.2518 56 42.8133 57.0119 42.8133C57.0119 42.8133 57.8951 42.7782 58.4741 42.8133C59.7024 42.8835 60.8312 42.8133 60.8312 40.1169C60.8312 40.1169 60.492 35.0635 58.2519 31.8115C58.2519 31.8115 54.994 23.1669 50.8413 20.6986C50.8413 20.6986 48.4842 18.903 46.9109 18.903C46.9109 18.903 40.4011 17.2185 41.7463 20.026C41.7463 20.026 42.5301 21.4824 43.3197 21.9327V21.9386Z" fill="#0062B1"/>
<path fill-rule="evenodd" clip-rule="evenodd" d="M49.2679 46.6326C49.2679 46.6326 53.3095 46.9718 54.4325 46.9718C54.4325 46.9718 58.246 46.9718 59.1467 47.1941C59.1467 47.1941 61.2757 46.9718 60.2697 48.6505C60.2697 48.6505 59.5561 49.9255 58.5852 51.2357C57.6143 52.54 56.3977 53.8735 56.0059 54.2654C56.0059 54.2654 55.4444 55.6107 53.871 55.9499C53.871 55.9499 51.625 57.4063 49.7183 58.0789C49.7183 58.0789 45.0041 60.436 42.7581 60.5471C42.7581 60.5471 37.4824 61.7812 39.3892 59.7634C39.3892 59.7634 42.0855 56.7336 42.8693 55.8329C42.8693 55.8329 43.8811 54.821 44.5537 52.4639C44.5537 52.4639 45.5656 49.7676 46.0101 48.8727C46.0101 48.8727 46.3493 47.6386 46.7939 47.1882C46.7939 47.1882 47.0161 46.5156 47.9168 46.5156L49.2621 46.6268L49.2679 46.6326Z" fill="#0062B1"/>
<path d="M96.059 17.024H101.211V38.688H96.059V17.024ZM99.803 24.8H104.955V28.992H99.803V24.8ZM78.395 29.888H80.987C87.707 29.888 90.811 29.76 94.171 29.024L94.651 33.056C91.259 33.856 87.899 34.016 80.987 34.016H78.395V29.888ZM78.395 19.264H91.931V23.36H83.547V32.064H78.395V19.264ZM81.499 42.496H102.139V46.592H81.499V42.496ZM81.499 36.352H86.683V44.64H81.499V36.352ZM129.08 20.256H134.232V24.416H129.08V20.256ZM129.08 26.848H134.232V31.04H129.08V26.848ZM115.192 18.56C119.896 18.56 123.544 21.664 123.544 25.952C123.544 30.208 119.896 33.344 115.192 33.344C110.488 33.344 106.872 30.208 106.872 25.952C106.872 21.664 110.488 18.56 115.192 18.56ZM115.192 22.848C113.336 22.848 111.896 23.904 111.896 25.952C111.896 28 113.336 29.024 115.192 29.024C117.08 29.024 118.488 28 118.488 25.952C118.488 23.904 117.08 22.848 115.192 22.848ZM125.496 17.024H130.648V34.368H125.496V17.024ZM120.728 34.848C127 34.848 131.032 37.152 131.032 40.96C131.032 44.8 127 47.072 120.728 47.072C114.456 47.072 110.392 44.8 110.392 40.96C110.392 37.152 114.456 34.848 120.728 34.848ZM120.728 38.88C117.24 38.88 115.544 39.456 115.544 40.96C115.544 42.464 117.24 43.072 120.728 43.072C124.216 43.072 125.912 42.464 125.912 40.96C125.912 39.456 124.216 38.88 120.728 38.88ZM139.574 18.272H158.422V22.336H139.574V18.272ZM136.31 29.376H163.478V33.44H136.31V29.376ZM147.542 31.84H152.726V39.36H147.542V31.84ZM155.382 18.272H160.502V20.992C160.502 23.904 160.502 27.04 159.574 31.232L154.486 30.752C155.382 26.72 155.382 23.84 155.382 20.992V18.272ZM139.286 42.496H160.822V46.592H139.286V42.496ZM139.286 36.704H144.438V43.328H139.286V36.704Z" fill="black"/>
<rect x="177.283" y="21.9604" width="2" height="20" fill="#003E92"/>
<path d="M203.035 21.5464H205.807V41.9184H203.035V21.5464ZM200.593 29.3564H203.981V31.7324H200.593V29.3564ZM198.657 21.8544H201.385V40.9944H198.657V21.8544ZM191.793 24.7144H194.015V26.5184C194.015 31.5564 192.915 36.0004 189.527 38.0464L187.767 35.8024C190.825 34.0424 191.793 30.4344 191.793 26.5184V24.7144ZM192.387 24.7144H194.631V26.5184C194.631 30.1044 195.665 33.4924 198.701 35.0764L197.029 37.2984C193.597 35.4504 192.387 31.2484 192.387 26.5184V24.7144ZM188.427 23.6144H197.689V25.9684H188.427V23.6144ZM219.445 26.4744H223.317V28.8504H219.445V26.4744ZM222.525 21.5464H225.451V33.6464H222.525V21.5464ZM218.543 34.0864C222.855 34.0864 225.517 35.5604 225.517 38.0244C225.517 40.5104 222.855 41.9404 218.543 41.9404C214.231 41.9404 211.569 40.5104 211.569 38.0244C211.569 35.5604 214.231 34.0864 218.543 34.0864ZM218.543 36.3084C215.903 36.3084 214.495 36.8584 214.495 38.0244C214.495 39.1684 215.903 39.7184 218.543 39.7184C221.205 39.7184 222.613 39.1684 222.613 38.0244C222.613 36.8584 221.205 36.3084 218.543 36.3084ZM213.109 23.5924H215.485V24.8684C215.485 28.7624 213.681 32.3264 209.787 33.6464L208.291 31.3364C211.657 30.1924 213.109 27.4864 213.109 24.8684V23.5924ZM213.725 23.5924H216.079V24.8684C216.079 27.2664 217.465 29.7524 220.677 30.8304L219.247 33.1404C215.463 31.8864 213.725 28.4984 213.725 24.8684V23.5924ZM209.083 22.7784H220.039V25.1104H209.083V22.7784ZM239.684 26.4744H243.556V28.8504H239.684V26.4744ZM242.764 21.5464H245.69V33.6464H242.764V21.5464ZM238.782 34.0864C243.094 34.0864 245.756 35.5604 245.756 38.0244C245.756 40.5104 243.094 41.9404 238.782 41.9404C234.47 41.9404 231.808 40.5104 231.808 38.0244C231.808 35.5604 234.47 34.0864 238.782 34.0864ZM238.782 36.3084C236.142 36.3084 234.734 36.8584 234.734 38.0244C234.734 39.1684 236.142 39.7184 238.782 39.7184C241.444 39.7184 242.852 39.1684 242.852 38.0244C242.852 36.8584 241.444 36.3084 238.782 36.3084ZM233.348 23.5924H235.724V24.8684C235.724 28.7624 233.92 32.3264 230.026 33.6464L228.53 31.3364C231.896 30.1924 233.348 27.4864 233.348 24.8684V23.5924ZM233.964 23.5924H236.318V24.8684C236.318 27.2664 237.704 29.7524 240.916 30.8304L239.486 33.1404C235.702 31.8864 233.964 28.4984 233.964 24.8684V23.5924ZM229.322 22.7784H240.278V25.1104H229.322V22.7784ZM248.9 37.1884H267.336V39.5644H248.9V37.1884ZM256.622 32.8324H259.548V37.7604H256.622V32.8324ZM250.836 22.8444H253.74V25.9684H262.43V22.8444H265.334V33.4484H250.836V22.8444ZM253.74 28.2564V31.1164H262.43V28.2564H253.74ZM278.224 34.2184C282.624 34.2184 285.44 35.6704 285.44 38.0904C285.44 40.4664 282.624 41.9184 278.224 41.9184C273.824 41.9184 271.008 40.4664 271.008 38.0904C271.008 35.6704 273.824 34.2184 278.224 34.2184ZM278.224 36.4184C275.474 36.4184 273.912 36.9904 273.912 38.0904C273.912 39.1684 275.474 39.7184 278.224 39.7184C280.974 39.7184 282.536 39.1684 282.536 38.0904C282.536 36.9904 280.974 36.4184 278.224 36.4184ZM271.228 22.4484H284.12V24.7584H271.228V22.4484ZM269.16 30.6324H287.508V32.9644H269.16V30.6324ZM275.958 27.0904H278.862V31.2264H275.958V27.0904ZM282.426 22.4484H285.33V24.1204C285.33 25.7264 285.33 27.4644 284.78 29.5764L281.876 29.2684C282.426 27.1784 282.426 25.7044 282.426 24.1204V22.4484ZM304.006 21.5464H306.8V41.9184H304.006V21.5464ZM301.432 29.2244H304.798V31.5564H301.432V29.2244ZM295.36 24.0324H298.154C298.154 29.7744 296.482 34.4164 290.784 37.7384L289.09 35.7144C293.732 32.9644 295.36 29.5324 295.36 24.6484V24.0324ZM290.124 24.0324H296.218V26.3864H290.124V24.0324ZM299.496 22.0744H302.224V41.0384H299.496V22.0744Z" fill="#003E92"/>
</svg>
