<svg width="125" height="51" viewBox="0 0 125 51" fill="none" xmlns="http://www.w3.org/2000/svg">
<path fill-rule="evenodd" clip-rule="evenodd" d="M29.3605 2.56052C29.3605 2.56052 16.2472 -1.57414 13.0162 0.665673C13.0162 0.665673 12.7684 2.53137 12.7684 3.27473C12.7684 3.27473 12.2728 10.2371 12.2728 11.9765C12.2728 11.9765 11.2768 17.3209 11.2768 17.8213C11.2768 17.8213 10.9027 24.2881 10.9027 25.1578C10.9027 25.1578 10.8736 27.2713 10.9027 29.2585C10.9319 31.2456 11.0291 33.1113 11.1505 33.3591C11.1505 33.3591 19.1089 34.6029 22.5876 33.7332C22.5876 33.7332 22.7091 27.8883 21.5916 25.5271C21.5916 25.5271 20.5956 21.6742 20.5956 20.5567C20.5956 20.5567 20.9697 9.49372 21.0912 9.11961C21.0912 9.11961 22.7091 8.37139 24.6963 9.61519C24.6963 9.61519 25.4785 10.0282 26.3725 10.4849C27.626 11.1262 29.2925 11.8404 31.0367 11.4809C31.0367 11.4809 34.394 11.9765 34.5786 8.62404C34.5786 8.62404 35.045 3.95979 32.0619 3.40106C32.0619 3.40106 30.9735 3.06096 29.3556 2.56052H29.3605Z" fill="#646464"/>
<path fill-rule="evenodd" clip-rule="evenodd" d="M21.2515 38.4558C20.3333 38.446 19.4636 38.6112 18.2684 38.5481C15.2026 38.3829 11.8356 37.897 11.0874 38.8299C11.0874 38.8299 10.9028 40.8802 11.1797 42.0948C11.1797 42.0948 11.5538 43.5864 11.9279 43.8682C11.9279 43.8682 15.4698 43.5864 16.7768 43.8682C16.7768 43.8682 21.1592 44.5193 22.5585 44.0528C22.5585 44.0528 23.7683 43.6787 24.1424 43.12C24.1424 43.12 23.3942 39.4858 23.4914 38.6452C23.4914 38.6452 22.4225 38.4703 21.2515 38.4606V38.4558Z" fill="#646464"/>
<path fill-rule="evenodd" clip-rule="evenodd" d="M34.4912 22.0483C34.4912 24.3658 32.6109 26.2461 30.2934 26.2461C27.9759 26.2461 26.0956 24.3658 26.0956 22.0483C26.0956 19.7307 27.9759 17.8505 30.2934 17.8505C32.6109 17.8505 34.4912 19.7307 34.4912 22.0483Z" fill="#686868"/>
<path fill-rule="evenodd" clip-rule="evenodd" d="M5.40281 35.3802C5.40281 35.3802 7.59403 35.5746 10.5286 35.662C14.5175 35.7786 19.6579 35.798 20.411 35.8466C20.411 35.8466 22.7431 36.4054 23.3941 34.632C23.3941 34.632 24.1424 33.2327 24.4193 32.7663C24.4193 32.7663 25.4445 31.2747 26.4696 32.7663C26.4696 32.7663 27.4025 34.1656 27.4025 34.5397C27.4025 34.5397 28.243 33.3299 28.7094 32.7663C28.7094 32.7663 29.7346 30.9929 30.201 30.4342C30.201 30.4342 31.508 28.8503 32.159 30.8083C32.159 30.8083 32.9073 34.4425 32.8101 35.283C32.8101 35.283 35.2345 31.2747 37.1925 33.8838C37.1925 33.8838 38.1254 35.6523 38.31 36.2159C38.31 36.2159 39.8502 36.556 42.0414 36.59C45.0489 36.6337 49.0378 36.3616 49.684 36.3082C49.684 36.3082 53.0412 36.1236 54.0664 36.1236L55.1839 36.0313C55.1839 36.0313 57.7929 36.1236 56.209 37.5228C56.209 37.5228 55.2762 37.9893 54.251 37.9893C54.251 37.9893 43.2269 37.5957 34.9527 37.4305C30.7695 37.3479 27.1255 37.2119 26.1878 37.2459C26.1878 37.2459 19.0457 37.1925 12.3895 37.1536C6.72434 37.1196 1.43334 37.105 0.92319 37.0613C0.92319 37.0613 -1.21945 35.2928 1.0155 34.6368C1.0155 34.6368 2.23015 34.5445 2.8812 35.011C2.8812 35.011 4.28047 35.4774 5.39795 35.3851L5.40281 35.3802Z" fill="#646464"/>
<path fill-rule="evenodd" clip-rule="evenodd" d="M35.9827 18.2247C35.9827 18.2247 38.3148 20.0904 38.5918 23.1658C38.5918 23.1658 39.34 29.6909 38.9659 32.1154C38.9659 32.1154 38.3148 34.909 41.4826 35.0985C41.4826 35.0985 46.5161 35.565 47.3567 35.565C47.3567 35.565 48.0903 35.5358 48.5713 35.565C49.5916 35.6233 50.5293 35.565 50.5293 33.3251C50.5293 33.3251 50.2475 29.1273 48.3867 26.426C48.3867 26.426 45.6804 19.245 42.2309 17.1946C42.2309 17.1946 40.2728 15.7031 38.9659 15.7031C38.9659 15.7031 33.5583 14.3038 34.6758 16.6359C34.6758 16.6359 35.3268 17.8457 35.9827 18.2198V18.2247Z" fill="#4D4D4D"/>
<path fill-rule="evenodd" clip-rule="evenodd" d="M40.9239 38.7376C40.9239 38.7376 44.2812 39.0193 45.214 39.0193C45.214 39.0193 48.3818 39.0194 49.1301 39.204C49.1301 39.204 50.8986 39.0194 50.0629 40.4138C50.0629 40.4138 49.4702 41.4729 48.6636 42.5613C47.8571 43.6447 46.8465 44.7525 46.521 45.078C46.521 45.078 46.0546 46.1955 44.7476 46.4773C44.7476 46.4773 42.8819 47.6871 41.298 48.2458C41.298 48.2458 37.382 50.2038 35.5163 50.2961C35.5163 50.2961 31.1339 51.3213 32.7178 49.6451C32.7178 49.6451 34.9576 47.1283 35.6086 46.3801C35.6086 46.3801 36.4492 45.5396 37.0079 43.5816C37.0079 43.5816 37.8484 41.3418 38.2177 40.5984C38.2177 40.5984 38.4995 39.5732 38.8687 39.1991C38.8687 39.1991 39.0534 38.6404 39.8016 38.6404L40.9191 38.7327L40.9239 38.7376Z" fill="#4D4D4D"/>
<path d="M75.0068 22.7964C74.9242 22.8499 74.8465 22.8936 74.7687 22.9276C74.21 23.1025 73.5201 23.2483 72.7038 23.3649C71.8876 23.4815 71.0228 23.5835 70.1093 23.6613C69.1959 23.739 68.2825 23.7973 67.3788 23.8265C66.4703 23.8556 65.6492 23.8556 64.9058 23.8265C64.4054 23.7924 64.0118 23.6613 63.7154 23.4232C63.4191 23.1851 63.2733 22.7916 63.2733 22.2426V14.255C63.2733 13.706 63.3851 13.3173 63.6037 13.0987C63.8223 12.8801 64.2207 12.7683 64.7941 12.7683H72.7767C72.9905 12.7683 73.0925 12.8703 73.0925 13.0744V14.7263C73.0925 14.9304 72.9856 15.0324 72.7767 15.0324H66.2905C66.0184 15.0324 65.8824 15.1685 65.8824 15.4357V20.8919C65.8824 21.1445 65.9261 21.3097 66.0087 21.3874C66.0913 21.4652 66.2759 21.5138 66.5626 21.5283C67.0484 21.5624 67.6072 21.5624 68.2534 21.5381C68.8947 21.5138 69.57 21.4749 70.2697 21.4215C70.9742 21.368 71.6787 21.2903 72.388 21.198C73.0974 21.1056 73.763 20.9939 74.3849 20.8676C74.6424 20.819 74.793 20.9064 74.8367 21.1251L75.0845 22.4466C75.1137 22.6215 75.0845 22.7333 75.0068 22.7867V22.7964ZM79.6127 33.3444C79.5447 33.393 79.4718 33.4173 79.399 33.4173H67.4031C66.7229 33.4173 66.2662 33.291 66.033 33.0383C65.7998 32.7857 65.6832 32.3533 65.6832 31.7411V26.7076C65.6832 26.6299 65.7172 26.5521 65.7852 26.4695C65.8532 26.3918 65.9261 26.3529 65.999 26.3529H67.9473C68.0396 26.3529 68.1173 26.3869 68.1853 26.4598C68.2534 26.5327 68.2874 26.6153 68.2874 26.7076V30.7694C68.2874 30.9249 68.3165 31.0317 68.3797 31.0755C68.438 31.1241 68.5449 31.1483 68.6955 31.1483H79.399C79.4767 31.1483 79.5447 31.1775 79.6127 31.2455C79.6808 31.3087 79.7148 31.3816 79.7148 31.4593V33.1355C79.7148 33.2278 79.6808 33.3007 79.6127 33.3493V33.3444ZM82.1295 20.8141C82.0615 20.8676 81.9886 20.8967 81.9157 20.8967H78.8305V27.0137C78.8305 27.2177 78.7333 27.3198 78.5341 27.3198H76.5178C76.3235 27.3198 76.2214 27.2177 76.2214 27.0137V11.7043C76.2214 11.5002 76.3186 11.3982 76.5178 11.3982H78.5341C78.7285 11.3982 78.8305 11.5002 78.8305 11.7043V18.6278H81.9157C81.9934 18.6278 82.0615 18.6569 82.1295 18.7104C82.1975 18.7638 82.2315 18.8318 82.2315 18.9096V20.6101C82.2315 20.6878 82.1975 20.7558 82.1295 20.8093V20.8141Z" fill="#231815"/>
<path d="M95.0437 17.6609C95.0437 18.448 94.9076 19.1768 94.6355 19.8473C94.3635 20.5178 93.9796 21.0911 93.4889 21.5721C92.9982 22.0531 92.4103 22.4272 91.7301 22.6944C91.0499 22.9616 90.3017 23.0977 89.4854 23.0977C88.6692 23.0977 87.9307 22.9616 87.2651 22.6944C86.5994 22.4272 86.031 22.0531 85.5548 21.5721C85.0787 21.0911 84.7095 20.5178 84.4422 19.8473C84.1799 19.1768 84.0438 18.448 84.0438 17.6609C84.0438 16.8738 84.175 16.1936 84.4422 15.5231C84.7046 14.8526 85.0787 14.2696 85.5548 13.774C86.031 13.2785 86.5994 12.8898 87.2651 12.6031C87.9307 12.3213 88.6692 12.1756 89.4854 12.1756C90.3017 12.1756 91.0499 12.3165 91.7301 12.6031C92.4103 12.8898 92.9982 13.2785 93.4889 13.774C93.9796 14.2696 94.3635 14.8526 94.6355 15.5231C94.9076 16.1936 95.0437 16.903 95.0437 17.6609ZM92.4589 17.7095C92.4589 16.7621 92.1868 16.0139 91.6427 15.4551C91.0985 14.8964 90.3794 14.6146 89.4903 14.6146C88.6012 14.6146 87.9258 14.8964 87.3817 15.4551C86.8375 16.0139 86.5654 16.7669 86.5654 17.7095C86.5654 18.6521 86.8375 19.41 87.3817 19.9785C87.9258 20.5469 88.6303 20.8287 89.4903 20.8287C90.3503 20.8287 91.0985 20.5469 91.6427 19.9785C92.1868 19.41 92.4589 18.6569 92.4589 17.7095ZM100.374 29.3069C100.374 29.9677 100.203 30.5799 99.8634 31.1386C99.5233 31.6974 99.052 32.1735 98.4447 32.5671C97.8373 32.9606 97.1231 33.2667 96.2923 33.4902C95.4615 33.7088 94.5627 33.8206 93.5958 33.8206C92.5512 33.8206 91.6184 33.7088 90.7973 33.4902C89.9713 33.2667 89.2717 32.9606 88.6886 32.5671C88.1056 32.1735 87.6586 31.7022 87.3525 31.1483C87.0416 30.5993 86.8861 29.9823 86.8861 29.3069C86.8861 28.6316 87.0416 28.0389 87.3525 27.4898C87.6635 26.9408 88.1105 26.4647 88.6886 26.0711C89.2717 25.6776 89.9713 25.3715 90.7973 25.148C91.6232 24.9294 92.5561 24.8176 93.5958 24.8176C94.5627 24.8176 95.4615 24.9245 96.2923 25.1383C97.1231 25.3521 97.8422 25.6533 98.4447 26.0468C99.0471 26.4404 99.5233 26.9117 99.8634 27.4655C100.203 28.0194 100.374 28.6316 100.374 29.3069ZM97.677 29.3798C97.677 28.9863 97.5653 28.6413 97.3466 28.3401C97.128 28.0389 96.8316 27.7911 96.4624 27.5821C96.0931 27.3781 95.6607 27.2226 95.17 27.1206C94.6793 27.0185 94.1545 26.9651 93.5958 26.9651C92.386 26.9651 91.4094 27.1692 90.6709 27.5773C89.9276 27.9854 89.5583 28.5879 89.5583 29.375C89.5583 29.7539 89.6555 30.0843 89.8547 30.3661C90.049 30.6479 90.3308 30.886 90.6952 31.0755C91.0596 31.265 91.4872 31.4107 91.9779 31.5127C92.4686 31.6148 93.0079 31.6682 93.6007 31.6682C94.1594 31.6682 94.6841 31.6148 95.1748 31.5127C95.6656 31.4107 96.098 31.265 96.4672 31.0755C96.8365 30.886 97.1329 30.6479 97.3515 30.3661C97.5701 30.0843 97.6819 29.7539 97.6819 29.375L97.677 29.3798ZM103.449 19.7307C103.517 19.7841 103.551 19.8521 103.551 19.9299V21.5818C103.551 21.6595 103.517 21.7324 103.449 21.7956C103.381 21.8587 103.308 21.8879 103.235 21.8879H100.15V24.1568C100.15 24.2346 100.121 24.3123 100.058 24.3803C99.9994 24.4532 99.9314 24.4872 99.8537 24.4872H97.8373C97.7596 24.4872 97.6916 24.4532 97.6333 24.3803C97.575 24.3075 97.541 24.2249 97.541 24.1325V11.7043C97.541 11.5002 97.6381 11.3982 97.8373 11.3982H99.8537C100.048 11.3982 100.15 11.5002 100.15 11.7043V15.013H103.235C103.313 15.013 103.381 15.0421 103.449 15.0956C103.517 15.149 103.551 15.217 103.551 15.2948V16.9467C103.551 17.0244 103.517 17.1022 103.449 17.1702C103.381 17.2431 103.308 17.2771 103.235 17.2771H100.15V19.6384H103.235C103.313 19.6384 103.381 19.6675 103.449 19.721V19.7307Z" fill="#231815"/>
<path d="M121.513 13.8809C121.513 16.3539 121.309 18.6618 120.901 20.8044H124.234C124.312 20.8044 124.385 20.8481 124.462 20.9356C124.54 21.023 124.574 21.1056 124.574 21.1834V22.7187C124.574 22.7964 124.535 22.8742 124.462 22.9568C124.385 23.0345 124.312 23.0734 124.234 23.0734H115.731V28.0097C115.731 28.2478 115.625 28.3644 115.416 28.3644H113.443C113.229 28.3644 113.127 28.2478 113.127 28.0097V23.0734H104.484C104.392 23.0734 104.319 23.0345 104.256 22.9568C104.197 22.879 104.163 22.8013 104.163 22.7187V21.1834C104.163 21.0911 104.192 21.0036 104.256 20.9259C104.314 20.8481 104.392 20.8093 104.484 20.8093H118.477C118.671 19.8667 118.807 18.9096 118.875 17.9378C118.943 16.971 118.977 15.975 118.977 14.9498C118.977 14.7312 118.924 14.5854 118.817 14.5223C118.71 14.4591 118.554 14.4299 118.341 14.4299H107.773C107.695 14.4299 107.623 14.4008 107.545 14.3473C107.467 14.2939 107.433 14.2259 107.433 14.1481V12.5157C107.433 12.4039 107.472 12.3262 107.545 12.2776C107.623 12.229 107.695 12.2047 107.773 12.2047H120.022C120.507 12.2047 120.877 12.3408 121.134 12.608C121.392 12.8752 121.518 13.3028 121.518 13.8858L121.513 13.8809ZM121.921 33.2035C121.844 33.2521 121.771 33.2764 121.693 33.2764H108.857C108.176 33.2764 107.72 33.1452 107.486 32.8877C107.253 32.6253 107.137 32.1929 107.137 31.5759V26.1197C107.137 26.042 107.171 25.9642 107.239 25.8962C107.307 25.8233 107.38 25.7893 107.452 25.7893H109.401C109.493 25.7893 109.571 25.8233 109.639 25.8962C109.707 25.9691 109.741 26.042 109.741 26.1197V30.6333C109.741 30.7888 109.77 30.8957 109.833 30.9394C109.891 30.988 109.998 31.0123 110.149 31.0123H121.693C121.771 31.0123 121.844 31.0414 121.921 31.0949C121.999 31.1483 122.033 31.2164 122.033 31.2941V32.9946C122.033 33.0918 121.994 33.1598 121.921 33.2084V33.2035Z" fill="#231815"/>
</svg>
