<svg width="69" height="61" viewBox="0 0 69 61" fill="none" xmlns="http://www.w3.org/2000/svg">
<g id="Group">
<path id="Vector" fill-rule="evenodd" clip-rule="evenodd" d="M35.3476 3.08183C35.3476 3.08183 19.5614 -1.89557 15.6719 0.800766C15.6719 0.800766 15.3736 3.04674 15.3736 3.94162C15.3736 3.94162 14.777 12.3231 14.777 14.417C14.777 14.417 13.578 20.8508 13.578 21.4532C13.578 21.4532 13.1277 29.2381 13.1277 30.285C13.1277 30.285 13.0926 32.8293 13.1277 35.2215C13.1628 37.6137 13.2797 39.8597 13.426 40.1579C13.426 40.1579 23.0064 41.6553 27.1942 40.6083C27.1942 40.6083 27.3405 33.5721 25.9952 30.7295C25.9952 30.7295 24.7962 26.0914 24.7962 24.7461C24.7962 24.7461 25.2466 11.4282 25.3928 10.9778C25.3928 10.9778 27.3405 10.0771 29.7327 11.5744C29.7327 11.5744 30.6743 12.0716 31.7505 12.6214C33.2595 13.3934 35.2657 14.2532 37.3654 13.8204C37.3654 13.8204 41.407 14.417 41.6293 10.3812C41.6293 10.3812 42.1908 4.76631 38.5996 4.09369C38.5996 4.09369 37.2894 3.68427 35.3417 3.08183H35.3476Z" fill="#009A53"/>
<path id="Vector_2" fill-rule="evenodd" clip-rule="evenodd" d="M25.5859 46.2935C24.4805 46.2818 23.4335 46.4807 21.9947 46.4046C18.304 46.2058 14.2508 45.6209 13.35 46.7439C13.35 46.7439 13.1278 49.2121 13.4612 50.6743C13.4612 50.6743 13.9115 52.4699 14.3619 52.8092C14.3619 52.8092 18.6257 52.4699 20.1991 52.8092C20.1991 52.8092 25.4748 53.5929 27.1593 53.0314C27.1593 53.0314 28.6156 52.5811 29.066 51.9084C29.066 51.9084 28.1653 47.5335 28.2823 46.5216C28.2823 46.5216 26.9955 46.3111 25.5859 46.2994V46.2935Z" fill="#009A53"/>
<path id="Vector_3" fill-rule="evenodd" clip-rule="evenodd" d="M41.5242 26.542C41.5242 29.3319 39.2607 31.5954 36.4708 31.5954C33.6809 31.5954 31.4174 29.3319 31.4174 26.542C31.4174 23.752 33.6809 21.4885 36.4708 21.4885C39.2607 21.4885 41.5242 23.752 41.5242 26.542Z" fill="#E8380D"/>
<path id="Vector_4" fill-rule="evenodd" clip-rule="evenodd" d="M6.50683 42.5911C6.50683 42.5911 9.14468 42.8251 12.6774 42.9303C17.4793 43.0707 23.6675 43.0941 24.574 43.1526C24.574 43.1526 27.3815 43.8252 28.1653 41.6904C28.1653 41.6904 29.066 40.0059 29.3994 39.4444C29.3994 39.4444 30.6335 37.6488 31.8676 39.4444C31.8676 39.4444 32.9906 41.1289 32.9906 41.5793C32.9906 41.5793 34.0025 40.1229 34.5639 39.4444C34.5639 39.4444 35.7981 37.3096 36.3596 36.6369C36.3596 36.6369 37.9329 34.7302 38.7167 37.0873C38.7167 37.0873 39.6174 41.4623 39.5004 42.4741C39.5004 42.4741 42.419 37.6488 44.7761 40.7897C44.7761 40.7897 45.8991 42.9186 46.1213 43.5971C46.1213 43.5971 47.9754 44.0065 50.6133 44.0475C54.2338 44.1001 59.0357 43.7726 59.8136 43.7083C59.8136 43.7083 63.8552 43.486 65.0893 43.486L66.4345 43.3749C66.4345 43.3749 69.5754 43.486 67.6687 45.1705C67.6687 45.1705 66.5457 45.732 65.3116 45.732C65.3116 45.732 52.0404 45.2582 42.0798 45.0593C37.0439 44.9599 32.6572 44.7961 31.5284 44.8371C31.5284 44.8371 22.9305 44.7727 14.9175 44.726C8.09772 44.685 1.72828 44.6675 1.11415 44.6148C1.11415 44.6148 -1.46521 42.4858 1.22528 41.6962C1.22528 41.6962 2.6875 41.5851 3.47125 42.1466C3.47125 42.1466 5.15573 42.7081 6.50098 42.597L6.50683 42.5911Z" fill="#009A53"/>
<path id="Vector_5" fill-rule="evenodd" clip-rule="evenodd" d="M43.3197 21.9386C43.3197 21.9386 46.1271 24.1846 46.4605 27.8869C46.4605 27.8869 47.3612 35.742 46.9109 38.6606C46.9109 38.6606 46.1271 42.0237 49.9406 42.2518C49.9406 42.2518 56 42.8133 57.0119 42.8133C57.0119 42.8133 57.8951 42.7782 58.4741 42.8133C59.7024 42.8835 60.8312 42.8133 60.8312 40.1169C60.8312 40.1169 60.492 35.0635 58.2519 31.8115C58.2519 31.8115 54.994 23.1669 50.8413 20.6986C50.8413 20.6986 48.4842 18.903 46.9109 18.903C46.9109 18.903 40.4011 17.2185 41.7463 20.026C41.7463 20.026 42.5301 21.4824 43.3197 21.9327V21.9386Z" fill="#0062B1"/>
<path id="Vector_6" fill-rule="evenodd" clip-rule="evenodd" d="M49.2679 46.6326C49.2679 46.6326 53.3095 46.9718 54.4325 46.9718C54.4325 46.9718 58.246 46.9718 59.1467 47.1941C59.1467 47.1941 61.2757 46.9718 60.2697 48.6505C60.2697 48.6505 59.5561 49.9255 58.5852 51.2357C57.6143 52.54 56.3977 53.8735 56.0059 54.2654C56.0059 54.2654 55.4444 55.6107 53.871 55.9499C53.871 55.9499 51.625 57.4063 49.7183 58.0789C49.7183 58.0789 45.0041 60.436 42.7581 60.5471C42.7581 60.5471 37.4824 61.7812 39.3892 59.7634C39.3892 59.7634 42.0855 56.7336 42.8693 55.8329C42.8693 55.8329 43.8811 54.821 44.5537 52.4639C44.5537 52.4639 45.5656 49.7676 46.0101 48.8727C46.0101 48.8727 46.3493 47.6386 46.7939 47.1882C46.7939 47.1882 47.0161 46.5156 47.9168 46.5156L49.2621 46.6268L49.2679 46.6326Z" fill="#0062B1"/>
</g>
</svg>
